<svg xmlns:dc="http://purl.org/dc/elements/1.1/" xmlns:cc="http://creativecommons.org/ns#" xmlns:rdf="http://www.w3.org/1999/02/22-rdf-syntax-ns#" xmlns:svg="http://www.w3.org/2000/svg" xmlns="http://www.w3.org/2000/svg" xmlns:sodipodi="http://sodipodi.sourceforge.net/DTD/sodipodi-0.dtd" xmlns:inkscape="http://www.inkscape.org/namespaces/inkscape" id="svg2" version="1.1" inkscape:version="0.48.3.1 r9886" width="100.0px" height="100px" xml:space="preserve" sodipodi:docname="The_Noun_Project_Single_Icon_Template_v1.1.ai"><metadata id="metadata8"><rdf:RDF><cc:Work rdf:about=""><dc:format>image/svg+xml</dc:format><dc:type rdf:resource="http://purl.org/dc/dcmitype/StillImage"/><dc:title/></cc:Work></rdf:RDF></metadata><defs id="defs6"/><sodipodi:namedview pagecolor="#ffffff" bordercolor="#666666" borderopacity="1" objecttolerance="10" gridtolerance="10" guidetolerance="10" inkscape:pageopacity="0" inkscape:pageshadow="2" inkscape:window-width="1920" inkscape:window-height="1178" id="namedview4" showgrid="false" inkscape:zoom="5.3400704" inkscape:cx="73.385922" inkscape:cy="64.110625" inkscape:window-x="1920" inkscape:window-y="0" inkscape:window-maximized="1" inkscape:current-layer="g10"/><g id="g10" inkscape:groupmode="layer" inkscape:label="The_Noun_Project_Single_Icon_Template_v1.1" transform="matrix(1.25,0,0,-1.25,0,125)"><path sodipodi:type="arc" style="fill:none;stroke:#000000;stroke-width:6;stroke-linecap:butt;stroke-linejoin:miter;stroke-miterlimit:4;stroke-opacity:1;stroke-dasharray:none" id="path3757" sodipodi:cx="67.531776" sodipodi:cy="77.595337" sodipodi:rx="45.815678" sodipodi:ry="45.815678" d="m 113.34745,77.595337 a 45.815678,45.815678 0 1 1 -91.631351,0 45.815678,45.815678 0 1 1 91.631351,0 z" transform="matrix(0.8,0,0,-0.8,-3.0897702,111.63363)"/><path sodipodi:type="arc" style="fill:none;stroke:#000000;stroke-width:5.77198711;stroke-linecap:butt;stroke-linejoin:miter;stroke-miterlimit:4;stroke-opacity:1;stroke-dasharray:none" id="path3757-5" sodipodi:cx="67.531776" sodipodi:cy="77.595337" sodipodi:rx="45.815678" sodipodi:ry="45.815678" d="m 113.34745,77.595337 a 45.815678,45.815678 0 1 1 -91.631351,0 45.815678,45.815678 0 1 1 91.631351,0 z" transform="matrix(0.31282061,-0.05051256,-0.15462485,-0.95758029,41.808486,127.27232)"/><path sodipodi:type="arc" style="fill:none;stroke:#000000;stroke-width:5.77198713;stroke-linecap:butt;stroke-linejoin:miter;stroke-miterlimit:4;stroke-opacity:1;stroke-dasharray:none" id="path3757-5-9" sodipodi:cx="67.531776" sodipodi:cy="77.595337" sodipodi:rx="45.815678" sodipodi:ry="45.815678" d="m 113.34745,77.595337 a 45.815678,45.815678 0 1 1 -91.631351,0 45.815678,45.815678 0 1 1 91.631351,0 z" transform="matrix(-0.05336561,-0.31234655,-0.95612911,0.16335833,128.73068,57.974832)"/><path sodipodi:type="arc" style="fill:#000000;fill-opacity:1;stroke-width:6;stroke-miterlimit:4;stroke-dasharray:none" id="path3804-6" sodipodi:cx="14.700181" sodipodi:cy="12.548299" sodipodi:rx="4.5879545" sodipodi:ry="4.5879545" d="m 19.288136,12.548299 a 4.5879545,4.5879545 0 1 1 -9.17591,0 4.5879545,4.5879545 0 1 1 9.17591,0 z" transform="matrix(0.76734694,0,0,-0.76734694,39.655512,59.186257)"/></g></svg>