<?xml version="1.0" encoding="utf-8"?>
<!-- Generator: Adobe Illustrator 14.0.0, SVG Export Plug-In . SVG Version: 6.00 Build 43363)  -->
<!DOCTYPE svg PUBLIC "-//W3C//DTD SVG 1.1//EN" "http://www.w3.org/Graphics/SVG/1.1/DTD/svg11.dtd">
<svg version="1.1" id="svg1978" xmlns:svg="http://www.w3.org/2000/svg"
	 xmlns="http://www.w3.org/2000/svg" xmlns:xlink="http://www.w3.org/1999/xlink" x="0px" y="0px" width="743.367px"
	 height="368.439px" viewBox="0 0 743.367 368.439" enable-background="new 0 0 743.367 368.439" xml:space="preserve">
<path id="path25030" fill="#014185" d="M0,367.887h375.32L743.367,0H0V367.887"/>
<path id="path25032" fill="#FFFFFF" d="M440.783,69.144l-72.736-0.015v174.015L304.039,69.129h-62.554l-55.28,145.531
	c-5.819-36.659-43.642-49.33-74.191-58.815c-18.912-6.372-40.732-15.74-39.278-25.981c0-8.496,10.183-16.293,32.004-15.129
	c14.547,0.742,27.64,1.95,53.825,14.431l26.186-44.326c-24.73-11.987-56.735-19.566-82.92-19.595l0,0
	c-32.004,0-58.189,10.067-74.191,26.752c-10.183,11.609-17.457,26.345-17.457,42.682c0,22.476,8.729,38.419,24.73,51.119
	c16.002,10.692,33.458,17.66,50.916,22.767c20.366,6.3,36.368,11.755,36.368,23.45c0,4.32-1.455,8.248-4.364,11.405
	c-5.819,5.223-13.092,7.201-24.73,7.448c-20.366,0.379-34.913-2.865-59.644-17.311l-23.276,44.878
	c24.73,13.907,53.825,22.083,82.919,22.083l4.364-0.029c24.73-0.466,46.552-7.812,62.554-21.166c1.455-0.786,1.455-1.514,2.909-2.24
	l-7.273,19.537h66.917l10.183-33.867c11.638,3.898,24.73,6.168,39.278,6.168s26.185-2.196,37.823-5.891l11.638,33.59h107.65v-70.25
	h24.73c56.734,0,90.193-29.109,90.193-77.93C544.069,94.092,512.065,69.144,440.783,69.144z M272.035,218.122
	c-8.729,0-16.002-1.513-23.276-4.16l23.276-73.202l0,0l23.275,73.435C288.037,216.696,280.763,218.122,272.035,218.122z
	 M445.147,176.022h-16.002v-59.019h16.002c21.821,0,39.277,7.143,39.277,29.211C484.425,168.909,466.969,176.022,445.147,176.022"/>
</svg>
